<svg xmlns="http://www.w3.org/2000/svg" xmlns:xlink="http://www.w3.org/1999/xlink" width="15" height="15" viewBox="0 0 15 15"><defs><path id="rraqa" d="M1342.18 5430.82c.546.547.82 1.211.82 1.992v9.375c0 .781-.274 1.446-.82 1.992a2.712 2.712 0 0 1-1.993.82h-9.375a2.71 2.71 0 0 1-1.992-.82 2.71 2.71 0 0 1-.82-1.992v-9.375c0-.781.273-1.445.82-1.992a2.712 2.712 0 0 1 1.992-.82h9.375c.781 0 1.446.273 1.993.82zm-4.57 5.127h-1.407v-.761c0-.235.034-.401.103-.499.068-.097.239-.146.512-.146h.762v-1.553h-1.23c-.704 0-1.182.17-1.436.513-.254.341-.38.855-.38 1.537v.91h-1.143v1.551h1.142v4.512h1.67v-4.512h1.23z"/></defs><g><g transform="translate(-1328 -5430)"><use fill="#616161" xlink:href="#rraqa"/></g></g></svg>