<svg xmlns="http://www.w3.org/2000/svg" xmlns:xlink="http://www.w3.org/1999/xlink" width="15" height="15" viewBox="0 0 15 15"><defs><path id="a4d0a" d="M1342.18 5522.82c.546.547.82 1.211.82 1.992v9.375c0 .781-.274 1.446-.82 1.992a2.712 2.712 0 0 1-1.993.82h-9.375a2.71 2.71 0 0 1-1.992-.82 2.71 2.71 0 0 1-.82-1.992v-9.375c0-.781.273-1.445.82-1.992a2.712 2.712 0 0 1 1.992-.82h9.375c.781 0 1.446.273 1.993.82zm-1.993 2.344c0-.235-.117-.352-.351-.352h-8.672c-.234 0-.351.117-.351.352v8.672c0 .234.117.35.351.35h8.672c.234 0 .352-.116.352-.35zm-2.812.585h1.875v1.876h-1.875zm-1.875 1.876c.508 0 .947.186 1.318.557.371.37.557.81.557 1.317 0 .509-.186.948-.557 1.319a1.8 1.8 0 0 1-1.318.557c-.508 0-.948-.185-1.318-.557a1.8 1.8 0 0 1-.557-1.319 1.8 1.8 0 0 1 .557-1.317c.37-.371.81-.557 1.318-.557zm3.75 1.406v4.218h-7.5v-4.218h1.025c-.039.234-.058.39-.058.468 0 .782.273 1.441.82 1.978a2.702 2.702 0 0 0 1.963.806c.762 0 1.416-.268 1.963-.806.546-.537.82-1.196.82-1.978 0-.077-.02-.234-.058-.468z"/></defs><g><g transform="translate(-1328 -5522)"><use fill="#616161" xlink:href="#a4d0a"/></g></g></svg>