<svg xmlns="http://www.w3.org/2000/svg" xmlns:xlink="http://www.w3.org/1999/xlink" width="15" height="15" viewBox="0 0 15 15"><defs><path id="gge9a" d="M1342.18 5491.82c.546.547.82 1.21.82 1.992v9.375c0 .781-.274 1.446-.82 1.992a2.713 2.713 0 0 1-1.993.821h-9.375a2.712 2.712 0 0 1-1.992-.82 2.71 2.71 0 0 1-.82-1.993v-9.375c0-.781.273-1.445.82-1.992a2.712 2.712 0 0 1 1.992-.82h9.375c.781 0 1.446.273 1.993.82zm-8.555 3.75h-1.875v6.562h1.875zm-.249-1.904a.83.83 0 0 0-.63-.264.828.828 0 0 0-.63.264.866.866 0 0 0-.249.615.851.851 0 0 0 .88.879.853.853 0 0 0 .879-.878.868.868 0 0 0-.25-.616zm6.811 4.452c0-.507-.068-.946-.205-1.317-.136-.371-.307-.635-.512-.792a2.32 2.32 0 0 0-.586-.337 1.644 1.644 0 0 0-.572-.102c-.722 0-1.347.205-1.875.615v-.615h-1.875v6.562h1.875v-4.042l.06-.205c.058-.137.18-.274.365-.41.186-.137.425-.206.718-.206.488 0 .732.274.732.82v4.043h1.875z"/></defs><g><g transform="translate(-1328 -5491)"><use fill="#616161" xlink:href="#gge9a"/></g></g></svg>